<?xml version="1.0" encoding="utf-8"?>
<!-- Generator: Adobe Adobe Illustrator 29.2.0, SVG Export Plug-In . SVG Version: 6.00 Build 0)  -->
<svg version="1.1" id="Layer_1" xmlns="http://www.w3.org/2000/svg" xmlns:xlink="http://www.w3.org/1999/xlink" x="0px" y="0px"
	 width="454.74px" height="320.23px" viewBox="0 0 454.74 320.23" style="enable-background:new 0 0 454.74 320.23;"
	 xml:space="preserve">
<style type="text/css">
	.st0{fill:#1B1A1B;}
	.st1{fill:#FFFFFF;}
	.st2{fill:#050304;}
	.st3{fill:#E03D26;}
	.st4{fill:#1A1F90;}
	.st5{fill:#3CB67A;}
	.st6{fill:#E4E4E4;}
	.st7{fill:#F6F6F6;}
	.st8{opacity:0.3098;}
	.st9{opacity:0.5686;}
</style>
<path class="st1" d="M446.9,15.87c-4.69,3.52-9.58,7.43-14.66,11.53c-30.49,25.01-65.66,59.61-100.65,96.15
	c-8.99,9.38-17.59,18.76-26.38,28.14c-7.82,8.4-15.44,16.81-22.67,25.01c-2.93,3.13-5.86,6.25-8.6,9.38
	c-5.47,6.25-10.95,12.12-16.03,18.17c-0.59,0.59-1.17,1.37-1.95,2.15c-28.92,33.03-54.33,63.51-72.9,85.4
	c-0.2,0.39-0.59,0.59-0.98,0.98c-9.96,12.51-18.18,22.08-23.06,28.34c-3.32,3.91-9.38,3.91-12.51,0.2l-20.33-24.43l-1.17-1.17
	l-47.49-56.87l-10.16-12.12l-15.64-18.76L31.8,184.14L2.1,148.57c-4.69-5.08-0.98-13.09,5.86-13.09h84.23
	c2.35,0,4.49,0.98,6.06,2.74l20.13,23.26l9.38,10.75l13.09,15.24c3.13,3.52,8.6,3.52,11.92,0c9.77-10.16,19.54-19.93,28.73-29.12
	c1.56-1.37,2.93-2.93,4.49-4.1c0.78-0.98,1.56-1.76,2.34-2.54c24.23-23.06,47.1-42.99,68.6-59.41
	c55.7-43.39,103.77-67.03,145.79-80.71c13.29-4.3,25.8-7.62,37.91-10.16C460.38-3.09,463.31,3.56,446.9,15.87z"/>
</svg>
