<?xml version="1.0" encoding="utf-8"?>
<!-- Generator: Adobe Adobe Illustrator 29.2.0, SVG Export Plug-In . SVG Version: 6.00 Build 0)  -->
<svg version="1.1" id="Layer_1" xmlns="http://www.w3.org/2000/svg" xmlns:xlink="http://www.w3.org/1999/xlink" x="0px" y="0px"
	 width="320.1px" height="320.23px" viewBox="0 0 320.1 320.23" style="enable-background:new 0 0 320.1 320.23;"
	 xml:space="preserve">
<style type="text/css">
	.st0{fill:#1B1A1B;}
	.st1{fill:#FFFFFF;}
	.st2{fill:#050304;}
	.st3{fill:#E03D26;}
	.st4{fill:#1A1F90;}
	.st5{fill:#3CB67A;}
	.st6{fill:#E4E4E4;}
	.st7{fill:#F6F6F6;}
	.st8{opacity:0.3098;}
	.st9{opacity:0.5686;}
</style>
<g>
	<path class="st3" d="M225.16,188.9c-4.87,0-8.48,1.81-11,5.23c-2.34,3.52-3.61,8.11-3.61,13.7v5.41c0,5.59,1.27,10.1,3.61,13.52
		c2.52,3.43,6.13,5.14,11,5.14c9.64,0,14.42-5.59,14.42-16.95v-8.84C239.57,194.67,234.8,188.9,225.16,188.9z M225.16,188.9
		c-4.87,0-8.48,1.81-11,5.23c-2.34,3.52-3.61,8.11-3.61,13.7v5.41c0,5.59,1.27,10.1,3.61,13.52c2.52,3.43,6.13,5.14,11,5.14
		c9.64,0,14.42-5.59,14.42-16.95v-8.84C239.57,194.67,234.8,188.9,225.16,188.9z M225.16,188.9c-4.87,0-8.48,1.81-11,5.23
		c-2.34,3.52-3.61,8.11-3.61,13.7v5.41c0,5.59,1.27,10.1,3.61,13.52c2.52,3.43,6.13,5.14,11,5.14c9.64,0,14.42-5.59,14.42-16.95
		v-8.84C239.57,194.67,234.8,188.9,225.16,188.9z"/>
	<path class="st3" d="M0,0v320.1h320.1V0H0z M166.36,254.46h-27.05l-2.8-12.44c-6.4,9.55-15.78,14.43-28.04,14.43
		c-11.91,0-21.01-3.88-27.42-11.73c-6.49-7.67-9.64-19.11-9.64-34.45c0-6.76,0.63-13.79,1.98-19.11l29.13,34
		c4.14,4.87,10.73,6.76,16.32,6.31c4.96-0.36,11.18-0.81,19.03-11.63l0.19-0.27l28.31-33.36V254.46z M166.36,157.88
		c-0.27,0.28-0.55,0.63-0.9,0.99c-13.35,15.24-25.06,29.31-33.63,39.41c-0.09,0.18-0.27,0.27-0.46,0.45
		c-4.6,5.77-8.38,10.19-10.64,13.08c-1.53,1.8-4.33,1.8-5.77,0.09l-9.38-11.27l-0.54-0.55l-21.91-26.24l-4.69-5.59l-7.22-8.66
		l-9.2-11l-13.7-16.41c-2.16-2.34-0.45-6.04,2.7-6.04h38.86c1.08,0,2.07,0.45,2.8,1.26l9.28,10.73l4.33,4.96l6.04,7.03
		c1.45,1.63,3.97,1.63,5.5,0c4.51-4.69,9.02-9.2,13.26-13.43c0.72-0.63,1.35-1.35,2.08-1.89c0.37-0.46,0.72-0.81,1.08-1.17
		c11.18-10.64,21.74-19.84,31.65-27.42c25.71-20.02,47.88-30.93,67.27-37.24c6.13-1.99,11.9-3.52,17.5-4.7
		c9.11-2.07,10.46,0.99,2.88,6.67c-2.16,1.63-4.42,3.43-6.76,5.32c-14.07,11.55-30.3,27.5-46.44,44.37
		c-4.14,4.33-8.11,8.66-12.17,12.99c-3.6,3.87-7.12,7.75-10.46,11.54c-1.35,1.44-2.7,2.89-3.96,4.33
		C171.23,152.38,168.71,155.09,166.36,157.88z M263.02,244.72c-6.49,7.84-15.59,11.73-27.5,11.73c-12.17,0-21.55-4.87-28.04-14.43
		l-2.8,12.44h-26.96v-80.52l33.09-36.34v36.97c6.4-6.76,14.61-10.1,24.71-10.1c11.9,0,21.01,3.79,27.5,11.55
		c6.4,7.76,9.65,19.2,9.65,34.26C272.67,225.6,269.42,237.05,263.02,244.72z"/>
</g>
</svg>
