<?xml version="1.0" encoding="utf-8"?>
<!-- Generator: Adobe Adobe Illustrator 29.2.0, SVG Export Plug-In . SVG Version: 6.00 Build 0)  -->
<svg version="1.1" id="Layer_1" xmlns="http://www.w3.org/2000/svg" xmlns:xlink="http://www.w3.org/1999/xlink" x="0px" y="0px"
	 width="1280px" height="320.23px" viewBox="0 0 1280 320.23" style="enable-background:new 0 0 1280 320.23;" xml:space="preserve"
	>
<style type="text/css">
	.st0{fill:#1B1A1B;}
	.st1{fill:#FFFFFF;}
	.st2{fill:#050304;}
	.st3{fill:#E03D26;}
	.st4{fill:#1A1F90;}
	.st5{fill:#3CB67A;}
	.st6{fill:#E4E4E4;}
	.st7{fill:#F6F6F6;}
	.st8{opacity:0.3098;}
	.st9{opacity:0.5686;}
</style>
<g>
	<g>
		<path d="M778.72,105.74c9.08,5.13,13.62,13.07,13.62,23.82h-34.3c0-3.58-1.61-6.12-4.82-7.6c-2.22-1.23-5.01-1.85-8.34-1.85
			c-8.9,0-13.34,2.1-13.34,6.3c0,2.35,1.54,4.02,4.63,5.01c3.08,0.99,8.15,2.04,15.2,3.15c8.65,1.24,15.88,2.69,21.69,4.35
			c5.81,1.67,10.87,4.63,15.2,8.9c4.32,4.26,6.49,10.23,6.49,17.89c0,12.48-4.66,21.38-13.99,26.69
			c-9.33,5.32-21.54,7.97-36.61,7.97c-8.65,0-16.81-1.21-24.47-3.62c-7.66-2.41-13.9-6.14-18.72-11.21
			c-4.82-5.07-7.23-11.49-7.23-19.28h34.29v0.74c0.12,4.2,1.88,7.14,5.28,8.8c3.4,1.67,7.01,2.5,10.84,2.5
			c10.26,0,15.39-2.41,15.39-7.23c0-2.47-1.61-4.27-4.82-5.38c-3.21-1.11-8.47-2.29-15.76-3.52c-8.78-1.48-15.97-3.08-21.6-4.82
			c-5.63-1.73-10.54-4.66-14.74-8.81c-4.2-4.14-6.3-9.92-6.3-17.33c0-11.99,4.54-20.51,13.62-25.58c9.08-5.07,20.91-7.6,35.5-7.6
			C758.54,98.05,769.64,100.62,778.72,105.74z"/>
		<g>
			<path d="M456.36,103.24v94.91h-40.96v-94.91h-41.9V70.61h124.57v32.62H456.36z"/>
			<path d="M573.33,98.88c2.22,0.68,3.34,1.08,3.34,1.21v30.96H564.8c-7.66,0-13.19,1.98-16.59,5.93c-3.4,3.96-5.1,9.82-5.1,17.61
				v43.56h-36.89v-97.87h30.22l2.41,14.83c2.22-5.68,5.75-9.98,10.56-12.88c4.82-2.9,10.26-4.35,16.32-4.35
				C568.57,97.86,571.1,98.21,573.33,98.88z"/>
			<path d="M653.09,198.15l-2.41-14.83c-3.84,5.32-8.87,9.49-15.11,12.51c-6.24,3.03-12.82,4.54-19.74,4.54
				c-11.37,0-19.9-3.15-25.58-9.45c-5.69-6.3-8.53-15.39-8.53-27.25v-63.4h36.89v58.95c0,4.2,1.08,7.57,3.24,10.1
				c2.16,2.53,5.22,3.8,9.18,3.8c4.57,0,8.28-1.48,11.12-4.45c2.84-2.97,4.26-6.61,4.26-10.94v-57.46h36.89v97.87H653.09z"/>
			<path d="M872.87,100.28v25.02h-20.76v37.26c0,4.45,0.74,7.69,2.22,9.73c1.48,2.04,4.2,3.06,8.16,3.06h10.38v21.69
				c-2.96,0.99-6.8,1.79-11.49,2.41c-4.7,0.62-8.78,0.93-12.24,0.93c-10.88,0-19.25-1.98-25.12-5.93c-5.87-3.96-8.8-10.69-8.8-20.21
				V125.3h-13.72v-25.02h15.2l7.97-29.66h27.44v29.66H872.87z"/>
			<path d="M953.82,198.15l-3.15-13.9c-7.17,10.75-17.55,16.13-31.14,16.13c-13.22,0-23.42-4.32-30.59-12.98
				c-7.17-8.65-10.75-21.44-10.75-38.37c0-16.81,3.58-29.51,10.75-38.09c7.17-8.59,17.36-12.89,30.59-12.89
				c11.25,0,20.39,3.77,27.44,11.31v-45.6h36.89v134.39H953.82z M915.08,144.39v9.82c0,12.61,5.31,18.91,15.94,18.91
				c5.44,0,9.51-1.92,12.24-5.75c2.72-3.83,4.07-8.83,4.07-15.01v-6.12c0-6.18-1.36-11.21-4.07-15.11
				c-2.72-3.89-6.8-5.84-12.24-5.84C920.39,125.3,915.08,131.66,915.08,144.39z"/>
			<path d="M1093.21,74.6c5.38,2.66,9.64,6.39,12.79,11.21c3.15,4.82,4.73,10.2,4.73,16.13c0,15.69-7.11,25.58-21.32,29.66v0.74
				c16.19,3.71,24.28,14.34,24.28,31.88c0,6.67-1.64,12.57-4.91,17.7c-3.28,5.13-7.76,9.11-13.44,11.96
				c-5.69,2.84-11.93,4.26-18.72,4.26h-86.01V70.61h84.9C1081.93,70.61,1087.83,71.94,1093.21,74.6z M1031.58,120.29h28.18
				c2.72,0,4.97-0.95,6.77-2.87c1.79-1.91,2.69-4.29,2.69-7.14v-1.85c0-2.72-0.93-5.03-2.78-6.95c-1.85-1.91-4.08-2.87-6.67-2.87
				h-28.18V120.29z M1031.58,168.49h31.14c2.72,0,4.97-0.95,6.77-2.87c1.79-1.91,2.69-4.29,2.69-7.14v-1.85
				c0-2.84-0.9-5.22-2.69-7.14c-1.79-1.92-4.05-2.87-6.77-2.87h-31.14V168.49z"/>
		</g>
	</g>
	<path class="st3" d="M2.49,0v320.68h320.68V0H2.49z M169.15,158.17c-0.27,0.27-0.54,0.63-0.9,0.99
		c-13.37,15.27-25.11,29.36-33.69,39.47c-0.09,0.18-0.27,0.27-0.45,0.45c-4.61,5.78-8.4,10.21-10.66,13.1
		c-1.53,1.81-4.34,1.81-5.78,0.09l-9.39-11.29l-0.54-0.54l-21.95-26.29l-4.7-5.6l-7.23-8.67l-9.21-11.02L50.9,132.43
		c-2.17-2.35-0.45-6.05,2.71-6.05h38.93c1.08,0,2.08,0.45,2.8,1.26l9.3,10.75l4.34,4.97l6.05,7.05c1.45,1.63,3.97,1.63,5.51,0
		c4.52-4.7,9.03-9.21,13.28-13.46c0.72-0.63,1.35-1.35,2.08-1.9c0.36-0.45,0.72-0.81,1.08-1.17c11.2-10.66,21.77-19.87,31.71-27.46
		c25.75-20.05,47.97-30.98,67.39-37.31c6.14-1.99,11.92-3.52,17.52-4.7c9.12-2.08,10.48,0.99,2.89,6.68
		c-2.17,1.63-4.43,3.43-6.77,5.33c-14.09,11.56-30.35,27.55-46.52,44.44c-4.15,4.34-8.13,8.67-12.19,13.01
		c-3.61,3.88-7.14,7.77-10.48,11.56c-1.35,1.45-2.71,2.89-3.97,4.34C174.03,152.66,171.5,155.37,169.15,158.17z"/>
	<path class="st1" d="M256.5,71.09c-2.17,1.63-4.43,3.43-6.77,5.33c-14.09,11.56-30.35,27.55-46.52,44.44
		c-4.15,4.34-8.13,8.67-12.19,13.01c-3.61,3.88-7.14,7.77-10.48,11.56c-1.35,1.45-2.71,2.89-3.97,4.34c-2.53,2.89-5.06,5.6-7.41,8.4
		c-0.27,0.27-0.54,0.63-0.9,0.99c-13.37,15.27-25.11,29.36-33.69,39.47c-0.09,0.18-0.27,0.27-0.45,0.45
		c-4.61,5.78-8.4,10.21-10.66,13.1c-1.53,1.81-4.34,1.81-5.78,0.09l-9.39-11.29l-0.54-0.54l-21.95-26.29l-4.7-5.6l-7.23-8.67
		l-9.21-11.02L50.9,132.43c-2.17-2.35-0.45-6.05,2.71-6.05h38.93c1.08,0,2.08,0.45,2.8,1.26l9.3,10.75l4.34,4.97l6.05,7.05
		c1.45,1.63,3.97,1.63,5.51,0c4.52-4.7,9.03-9.21,13.28-13.46c0.72-0.63,1.35-1.35,2.08-1.9c0.36-0.45,0.72-0.81,1.08-1.17
		c11.2-10.66,21.77-19.87,31.71-27.46c25.75-20.05,47.97-30.98,67.39-37.31c6.14-1.99,11.92-3.52,17.52-4.7
		C262.73,62.33,264.09,65.4,256.5,71.09z"/>
	<g>
		<path class="st1" d="M140.78,219.96l-0.18,0.27c-7.86,10.84-14.09,11.29-19.06,11.65c-5.6,0.45-12.19-1.45-16.35-6.32L76.01,191.5
			c-1.35,5.33-1.99,12.38-1.99,19.15c0,15.36,3.16,26.83,9.67,34.51c6.41,7.86,15.54,11.74,27.46,11.74
			c12.28,0,21.68-4.88,28.09-14.45l2.8,12.47h27.1v-68.38L140.78,219.96z"/>
		<path class="st1" d="M265.98,176.33c-6.5-7.77-15.63-11.56-27.55-11.56c-10.12,0-18.34,3.34-24.75,10.12v-37.04l-33.15,36.4v80.67
			h27.01l2.8-12.47c6.5,9.58,15.9,14.45,28.09,14.45c11.92,0,21.05-3.88,27.55-11.74c6.41-7.68,9.67-19.15,9.67-34.51
			C275.65,195.57,272.4,184.1,265.98,176.33z M242.5,215.35c0,11.38-4.79,16.98-14.45,16.98c-4.88,0-8.49-1.72-11.02-5.15
			c-2.35-3.43-3.61-7.95-3.61-13.55v-5.42c0-5.6,1.26-10.21,3.61-13.73c2.53-3.43,6.14-5.24,11.02-5.24
			c9.67,0,14.45,5.78,14.45,17.25V215.35z"/>
	</g>
	<g class="st9">
		<path d="M405.58,295.34h-9.27l-21.33-63.89h8.18l1.49,6.47l16.25,49.34h0.6l17.94-48.94l1.6-6.88h7.97L405.58,295.34z"/>
		<path d="M436.89,272.21v0.2c0,5.58,1.26,9.87,3.78,12.86c2.52,2.99,6.11,4.49,10.76,4.49c2.33,0,4.66-0.38,6.98-1.15
			c2.33-0.76,4.45-1.84,6.38-3.24l0.8,0.6l-1.2,6.77c-4.65,2.26-9.3,3.39-13.96,3.39c-6.51,0-11.63-2.08-15.35-6.23
			c-3.72-4.15-5.58-9.85-5.58-17.09c0-7.31,1.85-13.12,5.58-17.44c3.72-4.32,8.74-6.48,15.05-6.48c5.32,0,9.44,1.51,12.37,4.53
			c2.92,3.03,4.38,7.23,4.38,12.61c0,1.8-0.13,3.49-0.4,5.09l-1,1L436.89,272.21z M441.82,257.71c-2.22,2.16-3.71,5.2-4.44,9.12
			l22.03-0.4l0.2-1.4c0-3.39-0.81-5.99-2.44-7.82c-1.63-1.83-3.97-2.74-7.03-2.74C446.83,254.47,444.05,255.55,441.82,257.71z"/>
		<path d="M502.77,249.79v7.67l-0.9,0.3c-1.13-0.34-2.36-0.5-3.69-0.5c-2.2,0-4.21,0.88-6.03,2.64c-1.83,1.76-3.63,4.57-5.43,8.42
			l-0.1,6.98l0.5,20.03h-7.88l0.49-19.34l-0.4-25.82l7.48-0.7l-0.11,9.37h0.6c1.86-3.32,3.93-5.7,6.18-7.13
			c2.26-1.42,4.48-2.14,6.68-2.14C500.97,249.59,501.84,249.66,502.77,249.79z"/>
		<path d="M518.82,230.45c0.79,0.79,1.2,1.89,1.2,3.29c0,1.46-0.41,2.63-1.25,3.49c-0.83,0.86-1.98,1.3-3.43,1.3
			c-1.4,0-2.48-0.4-3.25-1.2c-0.76-0.8-1.15-1.93-1.15-3.39c0-1.4,0.41-2.53,1.25-3.39c0.83-0.86,1.98-1.3,3.43-1.3
			C516.96,229.25,518.02,229.65,518.82,230.45z M511.94,276l-0.29-25.82l7.67-0.7l-0.2,25.82l0.2,20.03h-7.78L511.94,276z"/>
		<path d="M570.04,227.16l-1,6.58l-1,0.3c-2.19-1.06-4.22-1.84-6.08-2.34c-1.86-0.5-3.75-0.75-5.68-0.75
			c-3.59,0-6.23,0.91-7.92,2.74c-1.69,1.83-2.54,4.67-2.54,8.52l-0.11,7.58h24.52l4.68-0.6l0.6,0.3l-0.6,26.01l0.6,19.84h-7.97
			l0.6-19.24l-0.4-21.03h-22.04l-0.29,20.33l0.49,19.94h-7.88l0.6-19.34l-0.19-20.93h-6.88l-0.4-0.6l0.49-4.68h6.68v-6.08
			c0-6.38,1.52-11.06,4.53-14.05c3.03-2.99,7.79-4.49,14.31-4.49C561.05,225.17,565.32,225.83,570.04,227.16z"/>
		<path d="M594.47,272.21v0.2c0,5.58,1.26,9.87,3.78,12.86c2.52,2.99,6.11,4.49,10.76,4.49c2.33,0,4.66-0.38,6.98-1.15
			c2.33-0.76,4.45-1.84,6.38-3.24l0.8,0.6l-1.2,6.77c-4.65,2.26-9.3,3.39-13.96,3.39c-6.51,0-11.63-2.08-15.35-6.23
			c-3.72-4.15-5.58-9.85-5.58-17.09c0-7.31,1.85-13.12,5.58-17.44c3.72-4.32,8.74-6.48,15.05-6.48c5.32,0,9.44,1.51,12.37,4.53
			c2.92,3.03,4.38,7.23,4.38,12.61c0,1.8-0.13,3.49-0.4,5.09l-1,1L594.47,272.21z M599.4,257.71c-2.22,2.16-3.71,5.2-4.44,9.12
			l22.03-0.4l0.2-1.4c0-3.39-0.81-5.99-2.44-7.82c-1.63-1.83-3.97-2.74-7.03-2.74C604.4,254.47,601.62,255.55,599.4,257.71z"/>
		<path d="M671.02,275.31l0.29,10.26c0.07,1.4,0.3,2.38,0.7,2.94c0.41,0.56,1.13,0.85,2.2,0.85c1.06,0,2.2-0.2,3.39-0.6l0.8,0.7
			l-0.8,4.49c-1.79,1.13-3.65,1.79-5.58,1.99c-2.06-0.2-3.67-0.9-4.83-2.1c-1.16-1.2-1.87-2.82-2.13-4.88h-0.71
			c-1.99,1.73-3.78,3.11-5.38,4.14c-1.59,1.03-3.42,1.94-5.48,2.74c-6.58,0-11.63-2.01-15.16-6.03c-3.52-4.02-5.28-9.75-5.28-17.19
			c0-7.51,1.96-13.34,5.88-17.49c3.93-4.15,9.33-6.23,16.25-6.23c3.12,0,6.04,0.34,8.77,1l-0.1-23.82l7.88-0.7L671.02,275.31z
			 M644.21,258.81c-2.46,2.89-3.69,7.06-3.69,12.51c0,5.65,1.11,10.03,3.34,13.16c2.22,3.12,5.29,4.68,9.22,4.68
			c1.85,0,3.67-0.46,5.43-1.39c1.76-0.93,3.61-2.49,5.54-4.69l0.19-7.18l-0.3-18.94c-3.52-1.66-6.74-2.49-9.67-2.49
			C650.02,254.47,646.67,255.92,644.21,258.81z"/>
		<path d="M728.33,251.18l-1.09,6.48l-1.2,0.3c-3.32-2.19-6.51-3.29-9.56-3.29c-2.27,0-4.09,0.63-5.49,1.89
			c-1.39,1.27-2.09,2.79-2.09,4.59c0,1.8,0.71,3.24,2.14,4.34c1.43,1.09,3.63,2.34,6.62,3.74c2.59,1.2,4.67,2.28,6.23,3.24
			c1.56,0.96,2.91,2.24,4.04,3.84c1.13,1.59,1.69,3.56,1.69,5.88c0,2.46-0.64,4.75-1.9,6.88c-1.26,2.13-3.12,3.84-5.58,5.13
			c-2.46,1.3-5.38,1.95-8.78,1.95c-4.65,0-9.07-1.1-13.25-3.29l1-6.78l0.89-0.6c1.86,1.59,3.87,2.82,6.03,3.69s4.2,1.3,6.13,1.3
			c2.45,0,4.45-0.68,5.98-2.05c1.53-1.36,2.29-2.97,2.29-4.83c0-1.79-0.71-3.24-2.14-4.34c-1.43-1.09-3.64-2.34-6.63-3.74
			c-2.59-1.2-4.68-2.28-6.28-3.24c-1.59-0.97-2.96-2.28-4.08-3.94c-1.13-1.66-1.69-3.72-1.69-6.18c0-3.85,1.41-7.01,4.23-9.47
			c2.82-2.46,6.66-3.69,11.51-3.69C721.15,248.99,724.81,249.72,728.33,251.18z"/>
		<path d="M763.32,287.27l0.89,0.6l-0.79,5.18c-3.59,1.66-6.92,2.62-9.97,2.89c-3.78-0.73-6.51-2.13-8.18-4.19
			c-1.66-2.06-2.49-5.05-2.49-8.97l0.3-7.08l-0.1-20.63h-6.28l-0.41-0.6l0.5-4.68h6.08v-7.38l6.88-2.99l0.79,0.7l-0.19,9.67h13.55
			l0.41,0.6l-0.5,4.68h-13.45l-0.5,27.01c-0.06,2.66,0.4,4.52,1.39,5.58s2.63,1.6,4.89,1.6
			C758.34,289.26,760.73,288.59,763.32,287.27z"/>
		<path d="M798.84,252.08c2.5,2.13,3.74,5.05,3.74,8.77c0,1.13-0.2,5.22-0.6,12.26c-0.4,7.04-0.6,11.16-0.6,12.36
			c0,1.46,0.24,2.47,0.7,3.04c0.47,0.56,1.26,0.85,2.4,0.85c1,0,2.13-0.2,3.39-0.6l0.79,0.7l-0.79,4.49
			c-1.93,1.13-3.82,1.79-5.68,1.99c-2.06-0.2-3.71-0.93-4.94-2.2c-1.23-1.26-1.87-2.99-1.94-5.18h-0.7
			c-3.59,3.66-7.15,6.15-10.67,7.48c-4.45,0-7.92-1.11-10.42-3.34c-2.49-2.22-3.73-5.27-3.73-9.12c0-2.92,0.78-5.25,2.34-6.97
			c1.56-1.73,3.87-2.96,6.92-3.69l16.15-3.78l0.1-6.48c0-2.59-0.68-4.59-2.05-5.98c-1.36-1.39-3.3-2.1-5.83-2.1
			c-2.26,0-4.52,0.53-6.77,1.6s-4.68,2.73-7.28,4.98l-0.79-0.4l-1-5.68c5.51-4.12,11.19-6.18,17.04-6.18
			C792.95,248.89,796.36,249.95,798.84,252.08z M780.66,277.7c-1.33,0.4-2.29,0.95-2.89,1.65c-0.59,0.7-0.89,1.74-0.89,3.14
			c0,2.19,0.61,3.9,1.84,5.13c1.23,1.23,2.88,1.84,4.93,1.84c3.65,0,7.37-2.36,11.17-7.08l0.3-8.17L780.66,277.7z"/>
		<path d="M842.16,249.79v7.67l-0.9,0.3c-1.13-0.34-2.36-0.5-3.69-0.5c-2.2,0-4.21,0.88-6.03,2.64c-1.83,1.76-3.63,4.57-5.43,8.42
			l-0.1,6.98l0.5,20.03h-7.88l0.49-19.34l-0.4-25.82l7.48-0.7l-0.11,9.37h0.6c1.86-3.32,3.93-5.7,6.18-7.13
			c2.26-1.42,4.48-2.14,6.68-2.14C840.36,249.59,841.22,249.66,842.16,249.79z"/>
		<path d="M872.35,287.27l0.89,0.6l-0.79,5.18c-3.59,1.66-6.92,2.62-9.97,2.89c-3.78-0.73-6.51-2.13-8.18-4.19
			c-1.66-2.06-2.49-5.05-2.49-8.97l0.3-7.08l-0.1-20.63h-6.28l-0.41-0.6l0.5-4.68h6.08v-7.38l6.88-2.99l0.79,0.7l-0.19,9.67h13.55
			l0.41,0.6l-0.5,4.68H859.4l-0.5,27.01c-0.06,2.66,0.4,4.52,1.39,5.58c1,1.06,2.63,1.6,4.89,1.6
			C867.37,289.26,869.76,288.59,872.35,287.27z"/>
		<path d="M923.49,289.46l-0.8,4.49c-1.92,1.13-3.82,1.79-5.68,1.99c-1.92-0.27-3.48-0.95-4.63-2.05c-1.16-1.09-1.98-2.74-2.44-4.93
			h-0.6c-3.99,3.59-8.11,5.91-12.36,6.98c-4.92,0-8.65-1.16-11.21-3.49c-2.56-2.33-3.8-5.65-3.74-9.97l0.1-12.66l-0.29-19.64
			l7.97-0.7l-0.59,31.1c0,2.73,0.64,4.85,1.94,6.38c1.3,1.53,3.2,2.29,5.73,2.29c4.12,0,8.24-1.99,12.36-5.98v-33.09l7.58-0.7
			l-0.5,36.08c0,1.4,0.21,2.38,0.64,2.94s1.18,0.85,2.25,0.85c1.06,0,2.22-0.2,3.48-0.6L923.49,289.46z"/>
		<path d="M967.34,254.87c3.05,3.79,4.58,9.21,4.58,16.25c0,7.97-1.92,14.14-5.78,18.49c-3.85,4.35-9.33,6.53-16.44,6.53
			c-2.8,0-5.68-0.3-8.67-0.9l0.19,18.54h-7.77l0.49-37.78l-0.49-25.82l7.58-0.7l-0.11,6.48h0.7c2.33-1.93,4.42-3.39,6.28-4.39
			s3.95-1.79,6.28-2.39C959.9,249.19,964.28,251.08,967.34,254.87z M960.86,285.77c2.39-3.06,3.59-7.41,3.59-13.06
			c0-5.51-0.94-9.73-2.84-12.66c-1.9-2.92-4.6-4.38-8.12-4.38c-2.06,0-4.1,0.56-6.13,1.69s-4.17,2.89-6.43,5.28l-0.1,12.66
			l0.1,12.46c3.26,1.72,6.51,2.59,9.77,2.59C955.08,290.35,958.47,288.83,960.86,285.77z"/>
		<path d="M1057.74,264.34c0.07-2.73-0.56-4.85-1.89-6.38c-1.33-1.53-3.29-2.29-5.88-2.29c-4.25,0-8.67,2.29-13.26,6.88l-0.19,12.96
			l0.4,19.84h-8.07l0.59-31c0.07-2.73-0.56-4.85-1.89-6.38c-1.33-1.53-3.29-2.29-5.88-2.29c-4.19,0-8.71,2.36-13.56,7.07v12.56
			l0.41,20.03h-7.88l0.49-19.34l-0.4-25.82l7.48-0.7v6.68h0.59c4.12-3.65,8.35-6.01,12.66-7.08c3.72,0,6.78,0.65,9.17,1.95
			c2.39,1.3,4.08,3.18,5.08,5.63h0.6c4.19-3.79,8.67-6.31,13.45-7.58c5.05,0,8.87,1.16,11.47,3.49c2.59,2.33,3.85,5.65,3.78,9.97
			l-0.19,12.96l0.4,19.84h-7.97L1057.74,264.34z"/>
		<path d="M1083.96,272.21v0.2c0,5.58,1.26,9.87,3.78,12.86c2.52,2.99,6.11,4.49,10.76,4.49c2.33,0,4.66-0.38,6.98-1.15
			c2.33-0.76,4.45-1.84,6.38-3.24l0.8,0.6l-1.2,6.77c-4.65,2.26-9.3,3.39-13.96,3.39c-6.51,0-11.63-2.08-15.35-6.23
			c-3.72-4.15-5.58-9.85-5.58-17.09c0-7.31,1.85-13.12,5.58-17.44c3.72-4.32,8.74-6.48,15.05-6.48c5.32,0,9.44,1.51,12.37,4.53
			c2.92,3.03,4.38,7.23,4.38,12.61c0,1.8-0.13,3.49-0.4,5.09l-1,1L1083.96,272.21z M1088.89,257.71c-2.22,2.16-3.71,5.2-4.44,9.12
			l22.03-0.4l0.2-1.4c0-3.39-0.81-5.99-2.44-7.82c-1.63-1.83-3.97-2.74-7.03-2.74C1093.9,254.47,1091.12,255.55,1088.89,257.71z"/>
		<path d="M1147.85,287.27l0.89,0.6l-0.79,5.18c-3.59,1.66-6.92,2.62-9.97,2.89c-3.78-0.73-6.51-2.13-8.18-4.19
			c-1.66-2.06-2.49-5.05-2.49-8.97l0.3-7.08l-0.1-20.63h-6.28l-0.41-0.6l0.5-4.68h6.08v-7.38l6.88-2.99l0.79,0.7l-0.19,9.67h13.55
			l0.41,0.6l-0.5,4.68h-13.45l-0.5,27.01c-0.06,2.66,0.4,4.52,1.39,5.58s2.63,1.6,4.89,1.6
			C1142.86,289.26,1145.25,288.59,1147.85,287.27z"/>
		<path d="M1181.64,249.79v7.67l-0.9,0.3c-1.13-0.34-2.36-0.5-3.69-0.5c-2.2,0-4.21,0.88-6.03,2.64c-1.83,1.76-3.63,4.57-5.43,8.42
			l-0.1,6.98l0.5,20.03h-7.88l0.49-19.34l-0.4-25.82l7.48-0.7l-0.11,9.37h0.6c1.86-3.32,3.93-5.7,6.18-7.13
			c2.26-1.42,4.48-2.14,6.68-2.14C1179.84,249.59,1180.71,249.66,1181.64,249.79z"/>
		<path d="M1197.68,230.45c0.79,0.79,1.2,1.89,1.2,3.29c0,1.46-0.41,2.63-1.25,3.49c-0.83,0.86-1.98,1.3-3.43,1.3
			c-1.4,0-2.48-0.4-3.25-1.2c-0.76-0.8-1.15-1.93-1.15-3.39c0-1.4,0.41-2.53,1.25-3.39c0.83-0.86,1.98-1.3,3.43-1.3
			C1195.82,229.25,1196.89,229.65,1197.68,230.45z M1190.8,276l-0.29-25.82l7.67-0.7l-0.2,25.82l0.2,20.03h-7.78L1190.8,276z"/>
		<path d="M1237.3,249.64c2.22,0.5,4.17,1.15,5.83,1.94l-1.39,6.88l-0.9,0.3c-3.46-2.25-6.87-3.39-10.27-3.39
			c-3.92,0-6.98,1.5-9.17,4.49c-2.2,2.99-3.29,7.18-3.29,12.56c0,5.39,1.15,9.62,3.44,12.71c2.29,3.09,5.46,4.64,9.52,4.64
			c1.79,0,3.67-0.3,5.63-0.9c1.96-0.6,3.8-1.43,5.53-2.49l0.9,0.5l-0.9,6.68c-4.05,1.73-8.11,2.59-12.16,2.59
			c-6.05,0-10.8-2.08-14.26-6.23c-3.46-4.15-5.18-9.85-5.18-17.09c0-7.37,1.81-13.21,5.43-17.49c3.63-4.29,8.56-6.43,14.8-6.43
			C1232.93,248.89,1235.07,249.14,1237.3,249.64z"/>
		<path d="M1276.22,251.18l-1.09,6.48l-1.2,0.3c-3.32-2.19-6.51-3.29-9.56-3.29c-2.27,0-4.09,0.63-5.49,1.89
			c-1.39,1.27-2.09,2.79-2.09,4.59c0,1.8,0.71,3.24,2.14,4.34c1.43,1.09,3.63,2.34,6.62,3.74c2.59,1.2,4.67,2.28,6.23,3.24
			c1.56,0.96,2.91,2.24,4.04,3.84c1.13,1.59,1.69,3.56,1.69,5.88c0,2.46-0.64,4.75-1.9,6.88c-1.26,2.13-3.12,3.84-5.58,5.13
			c-2.46,1.3-5.38,1.95-8.78,1.95c-4.65,0-9.07-1.1-13.25-3.29l1-6.78l0.89-0.6c1.86,1.59,3.87,2.82,6.03,3.69s4.2,1.3,6.13,1.3
			c2.45,0,4.45-0.68,5.98-2.05c1.53-1.36,2.29-2.97,2.29-4.83c0-1.79-0.71-3.24-2.14-4.34c-1.43-1.09-3.64-2.34-6.63-3.74
			c-2.59-1.2-4.68-2.28-6.28-3.24c-1.59-0.97-2.96-2.28-4.08-3.94c-1.13-1.66-1.69-3.72-1.69-6.18c0-3.85,1.41-7.01,4.23-9.47
			c2.82-2.46,6.66-3.69,11.51-3.69C1269.05,248.99,1272.7,249.72,1276.22,251.18z"/>
	</g>
</g>
</svg>
